<svg width="352" height="96" viewBox="0 0 352 96" fill="none" xmlns="http://www.w3.org/2000/svg">
<path opacity="0.1" d="M191.197 142.979C225.628 142.979 254.476 166.883 262.053 199H120.342C127.919 166.883 156.766 142.98 191.197 142.979ZM101.771 196.295C101.585 197.191 101.412 198.093 101.251 198.998H0V191.302C8.14363e-06 181.978 0.666819 172.82 1.96777 163.86L101.771 196.295ZM381.118 163.86C382.419 172.82 383.086 181.978 383.086 191.302V198.998H281.836C281.675 198.093 281.502 197.191 281.314 196.295H281.33L381.118 163.86ZM117.243 161.456C113.579 166.478 110.432 171.899 107.858 177.619L5.79688 144.457C11.2144 122.963 20.2829 102.909 32.3008 84.9727L117.243 161.456ZM350.788 84.9727C362.806 102.909 371.872 122.963 377.289 144.457L275.243 177.619C272.657 171.899 269.507 166.478 265.859 161.456L350.788 84.9727ZM145.5 135.846C140.083 139.009 135.026 142.701 130.38 146.865L44.0889 69.1709C58.6799 51.5986 76.3292 36.6598 96.2324 25.2031L145.5 135.846ZM286.853 25.2031C306.756 36.6598 324.405 51.5985 338.996 69.1709L252.706 146.865C248.076 142.701 243.006 139.009 237.602 135.846L286.853 25.2031ZM181.721 123.948C175.407 124.631 169.294 125.948 163.421 127.839L113.745 16.2871C134.694 6.91901 157.624 1.22762 181.721 0V123.948ZM201.365 0C225.461 1.22772 248.394 6.91912 269.34 16.2871L219.664 127.839C213.791 125.948 207.678 124.631 201.365 123.948V0Z" fill="#F27120"/>
</svg>
