<svg width="32" height="32" viewBox="0 0 32 32" fill="none" xmlns="http://www.w3.org/2000/svg">
<path d="M0 16C0 7.16344 7.16344 0 16 0C24.8366 0 32 7.16344 32 16C32 24.8366 24.8366 32 16 32C7.16344 32 0 24.8366 0 16Z" fill="#155DFC"/>
<path d="M19.9998 9.3335H17.9998C17.1158 9.3335 16.2679 9.68469 15.6428 10.3098C15.0177 10.9349 14.6665 11.7828 14.6665 12.6668V14.6668H12.6665V17.3335H14.6665V22.6668H17.3332V17.3335H19.3332L19.9998 14.6668H17.3332V12.6668C17.3332 12.49 17.4034 12.3204 17.5284 12.1954C17.6535 12.0704 17.823 12.0002 17.9998 12.0002H19.9998V9.3335Z" stroke="white" stroke-width="1.33333" stroke-linecap="round" stroke-linejoin="round"/>
</svg>
