<svg width="32" height="32" viewBox="0 0 32 32" fill="none" xmlns="http://www.w3.org/2000/svg">
<path d="M0 16C0 7.16344 7.16344 0 16 0C24.8366 0 32 7.16344 32 16C32 24.8366 24.8366 32 16 32C7.16344 32 0 24.8366 0 16Z" fill="#00C950"/>
<path d="M13.2668 21.3332C14.5392 21.9859 16.0029 22.1627 17.3941 21.8317C18.7853 21.5007 20.0125 20.6838 20.8547 19.528C21.6968 18.3722 22.0984 16.9537 21.9872 15.528C21.876 14.1023 21.2592 12.7632 20.248 11.752C19.2368 10.7408 17.8978 10.124 16.4721 10.0128C15.0464 9.90159 13.6278 10.3032 12.472 11.1454C11.3163 11.9875 10.4993 13.2147 10.1683 14.6059C9.83733 15.9971 10.0141 17.4608 10.6668 18.7332L9.3335 22.6665L13.2668 21.3332Z" stroke="white" stroke-width="1.33333" stroke-linecap="round" stroke-linejoin="round"/>
</svg>
