<svg width="32" height="32" viewBox="0 0 32 32" fill="none" xmlns="http://www.w3.org/2000/svg">
<path d="M0 16C0 7.16344 7.16344 0 16 0C24.8366 0 32 7.16344 32 16C32 24.8366 24.8366 32 16 32C7.16344 32 0 24.8366 0 16Z" fill="#1447E6"/>
<path d="M18.6665 13.3335C19.7274 13.3335 20.7448 13.7549 21.4949 14.5051C22.2451 15.2552 22.6665 16.2726 22.6665 17.3335V22.0002H19.9998V17.3335C19.9998 16.9799 19.8594 16.6407 19.6093 16.3907C19.3593 16.1406 19.0201 16.0002 18.6665 16.0002C18.3129 16.0002 17.9737 16.1406 17.7237 16.3907C17.4736 16.6407 17.3332 16.9799 17.3332 17.3335V22.0002H14.6665V17.3335C14.6665 16.2726 15.0879 15.2552 15.8381 14.5051C16.5882 13.7549 17.6056 13.3335 18.6665 13.3335Z" stroke="white" stroke-width="1.33333" stroke-linecap="round" stroke-linejoin="round"/>
<path d="M12.0002 14H9.3335V22H12.0002V14Z" stroke="white" stroke-width="1.33333" stroke-linecap="round" stroke-linejoin="round"/>
<path d="M10.6668 12.0002C11.4032 12.0002 12.0002 11.4032 12.0002 10.6668C12.0002 9.93045 11.4032 9.3335 10.6668 9.3335C9.93045 9.3335 9.3335 9.93045 9.3335 10.6668C9.3335 11.4032 9.93045 12.0002 10.6668 12.0002Z" stroke="white" stroke-width="1.33333" stroke-linecap="round" stroke-linejoin="round"/>
</svg>
