<svg width="32" height="32" viewBox="0 0 32 32" fill="none" xmlns="http://www.w3.org/2000/svg">
<path d="M0 16C0 7.16344 7.16344 0 16 0C24.8366 0 32 7.16344 32 16C32 24.8366 24.8366 32 16 32C7.16344 32 0 24.8366 0 16Z" fill="black"/>
<path d="M22.6668 10.6668C22.6668 10.6668 22.2002 12.0668 21.3335 12.9335C22.4002 19.6002 15.0668 24.4668 9.3335 20.6668C10.8002 20.7335 12.2668 20.2668 13.3335 19.3335C10.0002 18.3335 8.3335 14.4002 10.0002 11.3335C11.4668 13.0668 13.7335 14.0668 16.0002 14.0002C15.4002 11.2002 18.6668 9.60018 20.6668 11.4668C21.4002 11.4668 22.6668 10.6668 22.6668 10.6668Z" stroke="white" stroke-width="1.33333" stroke-linecap="round" stroke-linejoin="round"/>
</svg>
